<svg role="img" aria-labelledby="title desc" width="495" height="200" viewBox="0 0 495 200" xmlns="http://www.w3.org/2000/svg"><title id="title">Top Languages</title><desc id="desc">Linguagens mais presentes nos repositórios públicos</desc><rect x="1" y="1" width="493" height="198" rx="10" fill="#081B2B" stroke="#2E5D62"/><style>text{font-family:Segoe UI,Ubuntu,Helvetica Neue,sans-serif}.title{font-size:22px;font-weight:600;fill:#D9B38C}.label{font-size:14px;font-weight:600;fill:#8FD3D0}</style><text x="28" y="42" class="title">Top Languages</text><path d="M 365 108 L 365.00 43.00 A 65 65 0 0 1 380.78 171.06 Z" fill="#4F8F8B"/><path d="M 365 108 L 380.78 171.06 A 65 65 0 0 1 302.25 124.95 Z" fill="#6BA8A4"/><path d="M 365 108 L 302.25 124.95 A 65 65 0 0 1 306.53 79.61 Z" fill="#D9B38C"/><path d="M 365 108 L 306.53 79.61 A 65 65 0 0 1 334.77 50.46 Z" fill="#2E5D62"/><path d="M 365 108 L 334.77 50.46 A 65 65 0 0 1 365.00 43.00 Z" fill="#8FD3D0"/><circle cx="365" cy="108" r="34" fill="#081B2B"/><rect x="28" y="65" width="16" height="16" rx="2" fill="#4F8F8B"/><text x="54" y="78" class="label">HTML · 46.1%</text><rect x="28" y="88" width="16" height="16" rx="2" fill="#6BA8A4"/><text x="54" y="101" class="label">Python · 24.7%</text><rect x="28" y="111" width="16" height="16" rx="2" fill="#D9B38C"/><text x="54" y="124" class="label">CSS · 11.4%</text><rect x="28" y="134" width="16" height="16" rx="2" fill="#2E5D62"/><text x="54" y="147" class="label">JavaScript · 10.1%</text><rect x="28" y="157" width="16" height="16" rx="2" fill="#8FD3D0"/><text x="54" y="170" class="label">Jupyter Notebook · 7.7%</text></svg>
